<svg width="142" height="98" viewBox="0 0 142 98" fill="none" xmlns="http://www.w3.org/2000/svg">
  <path
    d="M34.8543 15.4751C32.1118 18.0557 31.98 22.3707 34.5599 25.1139L45.1907 36.4174C46.5318 37.8433 45.5208 40.182 43.5633 40.182H6.81335C3.05044 40.182 0 43.2324 0 46.9953C0 50.7583 3.05044 53.8087 6.81335 53.8087H43.563C45.5206 53.8087 46.5317 56.1475 45.1905 57.5735L34.5599 68.8769C31.98 71.62 32.1116 75.9351 34.854 78.5158C37.5979 81.098 41.9157 80.9659 44.4966 78.2209L67.4149 53.8459C71.0343 49.9964 71.0343 43.9954 67.4149 40.1459L44.4961 15.7703C41.9154 13.0255 37.598 12.8934 34.8543 15.4751Z"
    fill="url(#paint0_linear_1_6381)" />
  <path
    d="M54.8 81.6656C54.8 78.3156 57.5156 75.6 60.8655 75.6H62.1462C64.7888 75.6 66.9311 77.7423 66.9311 80.3849C66.9311 83.0275 69.0733 85.1698 71.716 85.1698H98C115.159 85.1698 129.069 71.2597 129.069 54.1009V43.0991C129.069 25.9403 115.159 12.0302 97.9999 12.0302H71.7159C69.0733 12.0302 66.9311 14.1725 66.9311 16.8151C66.9311 19.4577 64.7888 21.6 62.1462 21.6H60.8655C57.5156 21.6 54.8 18.8844 54.8 15.5344V10.8C54.8 4.83533 59.6353 0 65.6 0H101.2C123.291 0 141.2 17.9086 141.2 40V57.2C141.2 79.2914 123.291 97.2 101.2 97.2H65.6C59.6353 97.2 54.8 92.3647 54.8 86.4V81.6656Z"
    fill="url(#paint1_linear_1_6381)" />
  <defs>
    <linearGradient id="paint0_linear_1_6381" x1="36.9278" y1="10.7999" x2="36.9278" y2="83.1918"
      gradientUnits="userSpaceOnUse">
      <stop stop-color="#A154F2" />
      <stop offset="1" stop-color="#6202EE" />
    </linearGradient>
    <linearGradient id="paint1_linear_1_6381" x1="98" y1="0" x2="98" y2="97.2"
      gradientUnits="userSpaceOnUse">
      <stop stop-color="#A154F2" />
      <stop offset="1" stop-color="#6202EE" />
    </linearGradient>
  </defs>
</svg>
  