<svg width="102" height="19" viewBox="0 0 102 19" fill="none" xmlns="http://www.w3.org/2000/svg">
  <path fill-rule="evenodd" clip-rule="evenodd"
    d="M28.7937 14.1318C29.1632 14.1318 29.4871 14.0978 29.7616 14.0316C30.0352 13.9649 30.297 13.873 30.5466 13.7549V12.1568H29.4403C29.3348 12.1568 29.2503 12.1276 29.1903 12.0701C29.129 12.0096 29.0979 11.9381 29.0979 11.8532V10.9277H32.0377V14.4843C31.8122 14.6477 31.5793 14.7871 31.3381 14.9078C31.0956 15.0263 30.8373 15.1274 30.5619 15.2023C30.2865 15.279 29.9906 15.3378 29.6793 15.3757C29.3667 15.4141 29.0279 15.4328 28.6637 15.4328C28.0205 15.4328 27.4291 15.3221 26.8871 15.0995C26.3447 14.8755 25.8763 14.5666 25.4796 14.1675C25.0861 13.7728 24.7783 13.297 24.5559 12.7463C24.3335 12.1969 24.2236 11.5935 24.2236 10.9408C24.2236 10.2794 24.3322 9.67208 24.5476 9.12224C24.763 8.56978 25.069 8.09575 25.4674 7.69927C25.8627 7.30192 26.3447 6.99388 26.9108 6.77517C27.4768 6.55558 28.1138 6.44666 28.816 6.44666C29.5375 6.44666 30.1618 6.55384 30.6902 6.76689C31.2177 6.97951 31.6634 7.25617 32.0302 7.59645L31.5539 8.33756C31.4615 8.48743 31.3381 8.56237 31.1809 8.56237C31.082 8.56237 30.9844 8.531 30.8832 8.46521C30.7519 8.38766 30.6184 8.31229 30.4831 8.2356C30.3465 8.15718 30.1959 8.09095 30.0282 8.03388C29.8658 7.9768 29.6793 7.93018 29.4744 7.89359C29.2691 7.85699 29.0323 7.84087 28.7613 7.84087C28.3252 7.84087 27.9317 7.91232 27.5788 8.05871C27.2273 8.20336 26.9278 8.41162 26.68 8.6848C26.4305 8.95624 26.2388 9.28126 26.1035 9.66249C25.9704 10.0437 25.9034 10.4694 25.9034 10.9408C25.9034 11.4471 25.9757 11.8989 26.1175 12.2954C26.2593 12.6871 26.4594 13.023 26.7159 13.2935C26.9742 13.565 27.2785 13.7728 27.6318 13.9166C27.9864 14.0604 28.3747 14.1318 28.7937 14.1318Z"
    fill="white" />
  <path fill-rule="evenodd" clip-rule="evenodd"
    d="M33.4048 15.0419V8.90558H34.2706C34.4212 8.90558 34.5265 8.93302 34.5869 8.98917C34.6468 9.04446 34.687 9.14048 34.7071 9.2755L34.7957 10.0188C35.0148 9.63941 35.2721 9.33894 35.5648 9.1199C35.8605 8.90044 36.1918 8.79071 36.5577 8.79071C36.8603 8.79071 37.1102 8.86101 37.3118 8.99988L37.1188 10.1075C37.1059 10.1795 37.0811 10.2288 37.0426 10.2601C37.0007 10.2901 36.9489 10.3034 36.8804 10.3034C36.8201 10.3034 36.7383 10.2909 36.6365 10.2635C36.5312 10.2339 36.3946 10.2215 36.2235 10.2215C35.9174 10.2215 35.6551 10.3059 35.4351 10.4744C35.2151 10.6441 35.0315 10.8927 34.8792 11.2202V15.0419H33.4048Z"
    fill="white" />
  <path fill-rule="evenodd" clip-rule="evenodd"
    d="M38.0952 15.2373H39.6244V9.02078H38.0952V15.2373ZM39.8515 7.20785C39.8515 7.33769 39.8262 7.45884 39.7725 7.57261C39.7189 7.68464 39.6488 7.78322 39.5606 7.86963C39.4706 7.95344 39.3655 8.02118 39.248 8.07242C39.1274 8.12236 38.9993 8.14754 38.8627 8.14754C38.731 8.14754 38.6069 8.12236 38.4894 8.07242C38.3715 8.02118 38.2686 7.95344 38.1826 7.86963C38.0953 7.78322 38.0287 7.68464 37.976 7.57261C37.9237 7.45884 37.8979 7.33769 37.8979 7.20785C37.8979 7.0741 37.9237 6.94948 37.976 6.83484C38.0287 6.71542 38.0953 6.61424 38.1826 6.5287C38.2686 6.44402 38.3715 6.37585 38.4894 6.32504C38.6069 6.27424 38.731 6.25122 38.8627 6.25122C38.9993 6.25122 39.1274 6.27424 39.248 6.32504C39.3655 6.37585 39.4706 6.44402 39.5606 6.5287C39.6488 6.61424 39.7189 6.71542 39.7725 6.83484C39.8262 6.94948 39.8515 7.0741 39.8515 7.20785Z"
    fill="white" />
  <path fill-rule="evenodd" clip-rule="evenodd"
    d="M43.42 14.0651C43.7276 14.0651 43.9895 14.0025 44.2046 13.8733C44.4214 13.7467 44.6248 13.5657 44.818 13.3275V10.5746C44.6498 10.3712 44.467 10.2262 44.2678 10.1429C44.0704 10.0584 43.8562 10.0172 43.6265 10.0172C43.4033 10.0172 43.2015 10.0584 43.02 10.1429C42.8372 10.2262 42.6841 10.3527 42.5564 10.5227C42.4303 10.6947 42.3348 10.9084 42.2656 11.1706C42.1994 11.4319 42.1632 11.7395 42.1632 12.0957C42.1632 12.4552 42.1933 12.7586 42.2505 13.0074C42.3095 13.2597 42.3925 13.461 42.4991 13.6184C42.6067 13.7768 42.7396 13.8909 42.8957 13.9604C43.0523 14.0291 43.2269 14.0651 43.42 14.0651ZM45.3943 15.1485C45.2012 15.1485 45.0769 15.0606 45.0162 14.8786L44.8936 14.2865C44.7659 14.429 44.633 14.5611 44.4919 14.6761C44.3525 14.7907 44.2011 14.8907 44.0416 14.9743C43.8785 15.0606 43.7022 15.1237 43.5177 15.1713C43.3327 15.2159 43.131 15.2374 42.9142 15.2374C42.5783 15.2374 42.2699 15.1696 41.9894 15.0305C41.7094 14.8907 41.4677 14.686 41.266 14.4221C41.0642 14.1557 40.9081 13.8287 40.7988 13.4357C40.6879 13.0452 40.6328 12.5985 40.6328 12.0957C40.6328 11.64 40.6948 11.2173 40.8191 10.8277C40.9434 10.4356 41.1206 10.0953 41.3533 9.80955C41.5834 9.52035 41.8643 9.29508 42.1869 9.13332C42.5112 8.97414 42.8746 8.8909 43.2807 8.8909C43.6252 8.8909 43.919 8.9471 44.1611 9.05523C44.4063 9.16679 44.6248 9.31268 44.8179 9.49632V6.25122H46.298V15.1485H45.3943Z"
    fill="white" />
  <path fill-rule="evenodd" clip-rule="evenodd"
    d="M57.1285 10.8407C57.1285 10.3584 57.0639 9.92494 56.9326 9.542C56.8048 9.16036 56.619 8.83579 56.3787 8.5696C56.1401 8.30428 55.8496 8.09996 55.5063 7.96055C55.1621 7.81852 54.777 7.74664 54.346 7.74664H52.6352V13.9356H54.346C54.777 13.9356 55.1621 13.8646 55.5063 13.7235C55.8496 13.5806 56.1401 13.3763 56.3787 13.1109C56.619 12.8478 56.8048 12.5211 56.9326 12.1385C57.0639 11.756 57.1285 11.323 57.1285 10.8407ZM58.8008 10.8407C58.8008 11.4855 58.6927 12.0771 58.4798 12.6165C58.2648 13.155 57.9616 13.6207 57.5738 14.0084C57.1839 14.3992 56.7145 14.7003 56.1658 14.9146C55.617 15.1294 55.0107 15.2374 54.346 15.2374H50.9868V6.44666H54.346C55.0107 6.44666 55.617 6.5547 56.1658 6.77079C56.7145 6.98862 57.1839 7.2901 57.5738 7.67696C57.9616 8.06427 58.2648 8.52781 58.4798 9.06498C58.6927 9.6052 58.8008 10.1964 58.8008 10.8407Z"
    fill="white" />
  <path fill-rule="evenodd" clip-rule="evenodd"
    d="M62.1082 16.8695C62.0646 16.9749 62.0065 17.0535 61.9364 17.1084C61.8684 17.1615 61.7611 17.1909 61.6188 17.1909H60.5203L61.6658 14.7108L59.1914 8.98615H60.4784C60.5989 8.98615 60.6891 9.01336 60.7524 9.06951C60.8174 9.12695 60.8644 9.19044 60.896 9.26387L62.2035 12.4691C62.2467 12.575 62.2835 12.6838 62.3168 12.7939C62.348 12.908 62.3771 13.0203 62.3989 13.1343C62.4322 13.0151 62.4656 12.9037 62.5049 12.7939C62.5425 12.6868 62.5805 12.5758 62.6267 12.4635L63.8556 9.26387C63.8863 9.18267 63.9398 9.11788 64.015 9.06303C64.0868 9.01249 64.1702 8.98615 64.2603 8.98615H65.4426L62.1082 16.8695Z"
    fill="white" />
  <path fill-rule="evenodd" clip-rule="evenodd"
    d="M66.0288 15.2374V9.08201H66.9516C67.1489 9.08201 67.2791 9.171 67.337 9.3507L67.4435 9.83735C67.5684 9.71096 67.7017 9.59231 67.8424 9.49085C67.9836 9.3851 68.1318 9.29697 68.2892 9.21872C68.447 9.14392 68.6131 9.08588 68.7929 9.04676C68.9726 9.00463 69.1695 8.98615 69.3816 8.98615C69.7245 8.98615 70.0274 9.04246 70.2931 9.15639C70.5583 9.27074 70.7792 9.43024 70.9572 9.63616C71.1339 9.84423 71.2689 10.0893 71.3605 10.3756C71.4522 10.6606 71.4986 10.9753 71.4986 11.3205V15.2374H69.9879V11.3205C69.9879 10.9435 69.8989 10.652 69.7209 10.4461C69.5447 10.2406 69.2773 10.1374 68.9231 10.1374C68.6618 10.1374 68.4159 10.1959 68.1892 10.3102C67.9604 10.4276 67.7447 10.5858 67.5391 10.7857V15.2374H66.0288Z"
    fill="white" />
  <path fill-rule="evenodd" clip-rule="evenodd"
    d="M74.7021 14.2041C74.8519 14.2041 74.9914 14.1915 75.1178 14.1632C75.2437 14.1344 75.3637 14.0927 75.4765 14.0356C75.5897 13.9812 75.6995 13.9115 75.8041 13.831C75.9088 13.7483 76.0152 13.6529 76.1198 13.5402V12.4974C75.6926 12.4974 75.3369 12.524 75.0493 12.5802C74.7638 12.6346 74.5327 12.7042 74.3579 12.7918C74.1834 12.8767 74.0605 12.9764 73.9873 13.0909C73.9141 13.2049 73.8779 13.329 73.8779 13.4627C73.8779 13.7287 73.9532 13.9194 74.1056 14.0339C74.2575 14.1471 74.457 14.2041 74.7021 14.2041ZM77.5542 15.1402H76.8934C76.753 15.1402 76.6466 15.1193 76.5671 15.0766C76.4871 15.0331 76.4292 14.9473 76.3875 14.818L76.2577 14.3744C76.1033 14.5163 75.9535 14.6421 75.8042 14.7475C75.6561 14.8563 75.5016 14.9447 75.3438 15.0205C75.1851 15.0919 75.0161 15.1454 74.84 15.182C74.6604 15.2186 74.463 15.2373 74.2452 15.2373C73.9873 15.2373 73.7499 15.2016 73.5337 15.1302C73.3159 15.0579 73.1265 14.9534 72.9704 14.8106C72.8155 14.6674 72.6925 14.4915 72.6061 14.2799C72.5181 14.0687 72.4751 13.8232 72.4751 13.5419C72.4751 13.3077 72.5364 13.0739 72.6559 12.8427C72.7789 12.615 72.9768 12.4074 73.2601 12.2219C73.5418 12.0373 73.9141 11.8845 74.383 11.763C74.8502 11.6411 75.4276 11.5793 76.1199 11.5793V11.2127C76.1199 10.7917 76.0335 10.4813 75.8637 10.2788C75.691 10.0759 75.4399 9.97536 75.111 9.97536C74.8749 9.97536 74.677 10.0045 74.5192 10.0611C74.3596 10.1182 74.2226 10.1813 74.1056 10.2518C73.9873 10.3232 73.8809 10.3859 73.7831 10.4438C73.6831 10.5 73.5729 10.5305 73.4554 10.5305C73.355 10.5305 73.2712 10.5009 73.2014 10.4499C73.1282 10.3981 73.0716 10.3324 73.0282 10.2553L72.761 9.77553C73.4622 9.11898 74.3064 8.79071 75.2957 8.79071C75.651 8.79071 75.9701 8.85036 76.2497 8.97052C76.5305 9.08938 76.7666 9.25525 76.9577 9.46772C77.1521 9.68279 77.2985 9.93357 77.4015 10.2322C77.5027 10.5265 77.5542 10.8505 77.5542 11.204V15.1402Z"
    fill="white" />
  <path fill-rule="evenodd" clip-rule="evenodd"
    d="M78.9219 15.2374V9.08201H79.8411C80.0375 9.08201 80.1638 9.171 80.2251 9.3507L80.3243 9.80898C80.4319 9.68646 80.5482 9.57812 80.6694 9.47752C80.7892 9.37736 80.9164 9.29181 81.052 9.21872C81.1889 9.1465 81.3341 9.09018 81.4911 9.04848C81.6498 9.00721 81.8208 8.98615 82.0071 8.98615C82.4015 8.98615 82.7278 9.09018 82.9823 9.29911C83.2368 9.50934 83.4266 9.79049 83.5512 10.1374C83.6505 9.93322 83.7716 9.75782 83.9194 9.61337C84.0655 9.46549 84.226 9.34726 84.4 9.25569C84.5763 9.16327 84.7608 9.0962 84.9589 9.05235C85.1553 9.00807 85.3534 8.98615 85.5532 8.98615C85.8991 8.98615 86.2074 9.03816 86.4742 9.1422C86.7423 9.24495 86.9684 9.39842 87.152 9.59833C87.3366 9.79737 87.4752 10.0424 87.5705 10.3296C87.6663 10.6176 87.7127 10.9474 87.7127 11.3205V15.2374H86.2074V11.3205C86.2074 10.9267 86.1187 10.6318 85.9437 10.4336C85.7684 10.2354 85.5121 10.1374 85.1741 10.1374C85.0201 10.1374 84.8767 10.1641 84.7451 10.2161C84.6121 10.2664 84.4958 10.3429 84.397 10.4405C84.2977 10.5377 84.219 10.661 84.1626 10.8081C84.1031 10.9577 84.0773 11.1271 84.0773 11.3205V15.2374H82.562V11.3205C82.562 10.9082 82.4785 10.6069 82.311 10.4194C82.14 10.2307 81.8925 10.1374 81.5628 10.1374C81.3459 10.1374 81.1443 10.1912 80.9545 10.2969C80.766 10.4027 80.5906 10.548 80.4258 10.7311V15.2374H78.9219Z"
    fill="white" />
  <path fill-rule="evenodd" clip-rule="evenodd"
    d="M88.8871 15.2373H90.4152V9.0205H88.8871V15.2373ZM90.643 7.20689C90.643 7.33845 90.6177 7.45959 90.5641 7.57074C90.5105 7.68537 90.4396 7.78394 90.351 7.86774C90.261 7.95414 90.1591 8.02014 90.0395 8.07051C89.9185 8.12131 89.7905 8.14649 89.6554 8.14649C89.5229 8.14649 89.3975 8.12131 89.2814 8.07051C89.1658 8.02014 89.0599 7.95414 88.9752 7.86774C88.8871 7.78394 88.8184 7.68537 88.7674 7.57074C88.7156 7.45959 88.6895 7.33845 88.6895 7.20689C88.6895 7.07489 88.7156 6.94941 88.7674 6.83218C88.8184 6.71625 88.8871 6.61508 88.9752 6.52954C89.0599 6.44487 89.1658 6.3767 89.2814 6.3259C89.3975 6.2751 89.5229 6.25122 89.6554 6.25122C89.7905 6.25122 89.9185 6.2751 90.0395 6.3259C90.1591 6.3767 90.261 6.44487 90.351 6.52954C90.4396 6.61508 90.5105 6.71625 90.5641 6.83218C90.6177 6.94941 90.643 7.07489 90.643 7.20689Z"
    fill="white" />
  <path fill-rule="evenodd" clip-rule="evenodd"
    d="M96.2413 10.4059C96.1967 10.4649 96.1526 10.5091 96.1097 10.541C96.0673 10.5742 96.004 10.5895 95.9236 10.5895C95.8453 10.5895 95.7719 10.5663 95.6985 10.5195C95.6269 10.4723 95.5381 10.4203 95.4354 10.3613C95.3349 10.3019 95.2143 10.2498 95.0754 10.2026C94.9338 10.155 94.7594 10.1309 94.5514 10.1309C94.2866 10.1309 94.0546 10.1803 93.8566 10.2752C93.6586 10.3709 93.4913 10.5091 93.3597 10.687C93.2269 10.8662 93.1295 11.0839 93.0643 11.3374C92.997 11.5909 92.9656 11.8803 92.9656 12.2003C92.9656 12.5325 93.0014 12.8332 93.0731 13.0902C93.1447 13.3521 93.2457 13.5706 93.3785 13.7476C93.5144 13.9251 93.6792 14.058 93.8684 14.1489C94.0598 14.2394 94.2748 14.2862 94.5156 14.2862C94.7564 14.2862 94.9482 14.2573 95.0977 14.1974C95.2462 14.1384 95.3708 14.0737 95.4713 14.002C95.574 13.9308 95.6627 13.867 95.7378 13.8088C95.8143 13.7481 95.8965 13.7201 95.9922 13.7201C96.1115 13.7201 96.2054 13.766 96.2662 13.8591L96.6988 14.4081C96.5314 14.6044 96.3505 14.767 96.156 14.899C95.9594 15.0314 95.7566 15.1381 95.5482 15.215C95.3384 15.2968 95.123 15.354 94.8997 15.3842C94.676 15.4174 94.454 15.4327 94.2337 15.4327C93.8479 15.4327 93.4843 15.361 93.143 15.215C92.8 15.0725 92.5028 14.8623 92.2485 14.586C91.9959 14.3085 91.7927 13.9701 91.6459 13.5706C91.4977 13.1693 91.4243 12.7126 91.4243 12.2003C91.4243 11.7395 91.489 11.3151 91.6223 10.9234C91.7534 10.5287 91.9474 10.19 92.2026 9.90321C92.4604 9.61778 92.7777 9.39179 93.1552 9.23049C93.5341 9.06657 93.9685 8.98615 94.461 8.98615C94.9268 8.98615 95.3367 9.05958 95.6898 9.21082C96.0416 9.36163 96.3575 9.57756 96.6372 9.85863L96.2413 10.4059Z"
    fill="white" />
  <path fill-rule="evenodd" clip-rule="evenodd"
    d="M101.367 10.3004C101.326 10.3659 101.283 10.4131 101.238 10.4393C101.192 10.4668 101.137 10.4786 101.067 10.4786C100.993 10.4786 100.915 10.4581 100.83 10.4188C100.747 10.3782 100.652 10.331 100.539 10.2808C100.429 10.2297 100.304 10.1843 100.164 10.1428C100.022 10.1035 99.8575 10.083 99.6654 10.083C99.3671 10.083 99.1325 10.1459 98.9614 10.2716C98.7916 10.3978 98.7044 10.5615 98.7044 10.7659C98.7044 10.8991 98.7451 11.0117 98.8359 11.103C98.9219 11.1934 99.0399 11.2746 99.1855 11.3453C99.3294 11.4126 99.4939 11.4781 99.6772 11.5287C99.8588 11.5846 100.047 11.6444 100.241 11.7104C100.431 11.7758 100.62 11.8475 100.805 11.9317C100.987 12.0138 101.149 12.1204 101.297 12.2483C101.44 12.3762 101.557 12.5291 101.644 12.709C101.733 12.888 101.778 13.1028 101.778 13.3552C101.778 13.6556 101.72 13.9324 101.61 14.1874C101.502 14.4411 101.341 14.6594 101.127 14.845C100.915 15.0293 100.652 15.1751 100.34 15.2777C100.029 15.3799 99.6706 15.4327 99.268 15.4327C99.0522 15.4327 98.8395 15.4139 98.6342 15.3729C98.4267 15.3354 98.2298 15.2816 98.0394 15.2153C97.849 15.1445 97.6727 15.0633 97.5135 14.9703C97.3552 14.8769 97.2126 14.7751 97.0894 14.6642L97.4372 14.0914C97.4819 14.0224 97.5341 13.97 97.5955 13.9333C97.6574 13.8957 97.7346 13.877 97.8289 13.877C97.9214 13.877 98.0105 13.9053 98.0925 13.9573C98.178 14.011 98.2758 14.0682 98.3855 14.1289C98.4969 14.1883 98.6254 14.2464 98.7745 14.2992C98.9219 14.352 99.1101 14.3787 99.3417 14.3787C99.5198 14.3787 99.6724 14.3573 99.8027 14.3136C99.9312 14.2721 100.037 14.2149 100.121 14.1451C100.205 14.0774 100.265 13.9966 100.304 13.9053C100.344 13.8141 100.363 13.7193 100.363 13.6228C100.363 13.4766 100.318 13.3561 100.231 13.263C100.143 13.1692 100.027 13.0884 99.8829 13.0185C99.7373 12.9509 99.5711 12.8888 99.386 12.8351C99.1996 12.7779 99.011 12.719 98.8158 12.6544C98.6237 12.5902 98.432 12.512 98.2486 12.4256C98.0618 12.3369 97.8955 12.2269 97.7517 12.0933C97.6078 11.9592 97.492 11.7946 97.4047 11.5994C97.3139 11.4038 97.2709 11.1702 97.2709 10.8938C97.2709 10.6371 97.3223 10.3934 97.4245 10.1616C97.5253 9.93016 97.6762 9.72844 97.8749 9.55509C98.0719 9.38305 98.3188 9.24464 98.6153 9.14246C98.9114 9.0368 99.2526 8.98615 99.6413 8.98615C100.073 8.98615 100.465 9.05601 100.822 9.19879C101.175 9.34113 101.471 9.52889 101.709 9.75987L101.367 10.3004Z"
    fill="white" />
  <path fill-rule="evenodd" clip-rule="evenodd"
    d="M18.1997 9.34752C17.2242 4.73742 12.0686 0.399625 8.53256 0V0.000430167C8.24547 0.182391 8.00665 0.409949 7.81396 0.675792C9.87405 0.866356 11.6725 2.24117 13.7386 4.44878C15.3435 6.16515 16.4168 8.90617 16.6802 11.7943C16.7862 12.9373 16.7638 14.1026 16.6013 15.2374C18.2575 13.4268 18.6265 11.3611 18.1997 9.34752Z"
    fill="#F29100" />
  <path fill-rule="evenodd" clip-rule="evenodd"
    d="M16.7352 11.721C16.8413 12.8793 16.8189 14.0607 16.6558 15.2116C14.7725 17.3582 8.27285 18.4201 4.14694 18.1166V18.1148C3.52363 17.2182 3.20615 16.2282 3.12549 15.1911C8.36818 16.182 13.9814 14.5797 16.7352 11.721Z"
    fill="#EA5B25" />
  <path fill-rule="evenodd" clip-rule="evenodd"
    d="M12.6826 5.26769C13.9136 7.20147 13.6666 10.687 12.296 12.6978L12.1209 12.6558C11.2023 12.2703 10.2698 11.3775 9.45611 10.2312C12.2038 6.94112 10.6819 4.44203 8.75876 3.92999C8.18473 3.77534 7.57559 3.79873 7.03271 4.03179C8.87901 3.16367 11.3222 3.27673 12.6826 5.26769Z"
    fill="#0069B3" />
  <path fill-rule="evenodd" clip-rule="evenodd"
    d="M7.24485 3.70892C7.79209 3.48484 8.40663 3.46194 8.98618 3.61104C8.49916 4.04002 7.98911 4.5344 7.48261 5.07916C7.36174 4.61644 7.27629 4.15956 7.22803 3.71641V3.71516C7.23511 3.71266 7.23865 3.71017 7.24485 3.70892Z"
    fill="#A9AA00" />
  <path fill-rule="evenodd" clip-rule="evenodd"
    d="M12.3293 12.5083C11.4214 12.1263 10.4996 11.2416 9.69537 10.1059C8.73279 8.74905 7.93678 7.02911 7.53292 5.3757C7.4145 4.8984 7.33077 4.42796 7.28392 3.97082V3.96954C7.15032 2.67926 7.32253 1.51346 7.919 0.70393C8.11333 0.438664 8.35322 0.211599 8.64212 0.0304629V0.0296044C7.56632 -0.0901517 6.63844 0.147644 6.02333 0.848581H6.02029C5.55353 1.37868 5.26289 2.17234 5.22255 3.27504C5.14707 3.83948 5.09068 4.64429 5.08027 5.565C5.07159 6.46467 5.11063 7.47208 5.22342 8.47992C5.652 12.2975 7.15769 16.0881 11.2922 13.7234C11.7602 13.4543 12.1662 13.0465 12.5024 12.5503L12.3293 12.5083Z"
    fill="#62B8E8" />
  <path fill-rule="evenodd" clip-rule="evenodd"
    d="M3.19959 15.0988C3.02595 12.9146 3.95069 10.5188 5.27447 8.37876C5.16133 7.37255 5.12216 6.3672 5.13087 5.46979C2.95633 7.45565 0.344006 11.2933 0.0311194 14.1877C-0.132069 15.6964 0.330081 16.9472 1.80879 17.5452C2.42716 17.7623 3.26399 17.9028 4.23007 17.9722V17.9705C3.60081 17.0898 3.28053 16.1175 3.19959 15.0988Z"
    fill="#A9AA00" />
</svg>
  