<svg width="330" height="80" viewBox="0 0 330 80" fill="none" xmlns="http://www.w3.org/2000/svg">
  <rect opacity="0.5" width="80" height="80" rx="40" transform="matrix(1 0 0 -1 250 80)"
    fill="url(#paint0_linear_1_15000)" />
  <rect opacity="0.5" width="80" height="80" rx="40" transform="matrix(1 0 0 -1 0 80)"
    fill="url(#paint1_linear_1_15000)" />
  <rect opacity="0.5" x="160" width="40" height="80" rx="20" fill="url(#paint2_linear_1_15000)" />
  <rect opacity="0.5" width="40" height="80" rx="20" transform="matrix(1 0 0 -1 100 80)"
    fill="url(#paint3_linear_1_15000)" />
  <rect opacity="0.5" x="40" width="40" height="80" rx="20" fill="url(#paint4_linear_1_15000)" />
  <rect opacity="0.5" x="160" y="40" width="40" height="80" rx="20" transform="rotate(-90 160 40)"
    fill="url(#paint5_linear_1_15000)" />
  <defs>
    <linearGradient id="paint0_linear_1_15000" x1="40" y1="0" x2="40" y2="80"
      gradientUnits="userSpaceOnUse">
      <stop stop-color="#A154F2" />
      <stop offset="1" stop-color="#6202EE" />
    </linearGradient>
    <linearGradient id="paint1_linear_1_15000" x1="40" y1="0" x2="40" y2="80"
      gradientUnits="userSpaceOnUse">
      <stop stop-color="#A154F2" />
      <stop offset="1" stop-color="#6202EE" />
    </linearGradient>
    <linearGradient id="paint2_linear_1_15000" x1="180" y1="0" x2="180" y2="80"
      gradientUnits="userSpaceOnUse">
      <stop stop-color="#A154F2" />
      <stop offset="1" stop-color="#6202EE" />
    </linearGradient>
    <linearGradient id="paint3_linear_1_15000" x1="20" y1="0" x2="20" y2="80"
      gradientUnits="userSpaceOnUse">
      <stop stop-color="#A154F2" />
      <stop offset="1" stop-color="#6202EE" />
    </linearGradient>
    <linearGradient id="paint4_linear_1_15000" x1="60" y1="0" x2="60" y2="80"
      gradientUnits="userSpaceOnUse">
      <stop stop-color="#A154F2" />
      <stop offset="1" stop-color="#6202EE" />
    </linearGradient>
    <linearGradient id="paint5_linear_1_15000" x1="180" y1="40" x2="180" y2="120"
      gradientUnits="userSpaceOnUse">
      <stop stop-color="#6202EE" />
      <stop offset="1" stop-color="#8643E8" />
    </linearGradient>
  </defs>
</svg>